<mxfile host="Electron" agent="Mozilla/5.0 (Windows NT 10.0; Win64; x64) AppleWebKit/537.36 (KHTML, like Gecko) draw.io/26.0.16 Chrome/132.0.6834.196 Electron/34.2.0 Safari/537.36" version="26.0.16">
  <diagram name="Page-1" id="e7e014a7-5840-1c2e-5031-d8a46d1fe8dd">
    <mxGraphModel dx="1146" dy="565" grid="1" gridSize="10" guides="1" tooltips="1" connect="1" arrows="1" fold="1" page="1" pageScale="1" pageWidth="1169" pageHeight="826" background="none" math="0" shadow="0">
      <root>
        <mxCell id="0" />
        <mxCell id="1" parent="0" />
        <mxCell id="3" value="System" style="swimlane;whiteSpace=wrap" parent="1" vertex="1">
          <mxGeometry x="495.5" y="120" width="340" height="700" as="geometry" />
        </mxCell>
        <mxCell id="j6gfo25uo2iYtFk8idYJ-46" value="Kiểm tra đăng nhập" style="rounded=1;whiteSpace=wrap;html=1;" parent="3" vertex="1">
          <mxGeometry x="44.5" y="125" width="90" height="50" as="geometry" />
        </mxCell>
        <mxCell id="FOikH1ex-B_dLBzoI_Np-5" value="Tài khoản" style="rounded=0;whiteSpace=wrap;html=1;" vertex="1" parent="3">
          <mxGeometry x="164.5" y="50" width="104.5" height="50" as="geometry" />
        </mxCell>
        <mxCell id="FOikH1ex-B_dLBzoI_Np-6" value="" style="html=1;labelBackgroundColor=#ffffff;startArrow=none;startFill=0;startSize=6;endArrow=classic;endFill=1;endSize=6;jettySize=auto;orthogonalLoop=1;strokeWidth=1;dashed=1;fontSize=14;rounded=0;entryX=0.5;entryY=0;entryDx=0;entryDy=0;exitX=0;exitY=0.5;exitDx=0;exitDy=0;" edge="1" parent="3" source="FOikH1ex-B_dLBzoI_Np-5" target="j6gfo25uo2iYtFk8idYJ-46">
          <mxGeometry width="60" height="60" relative="1" as="geometry">
            <mxPoint x="74.5" y="75" as="sourcePoint" />
            <mxPoint x="124.5" y="50" as="targetPoint" />
          </mxGeometry>
        </mxCell>
        <mxCell id="FOikH1ex-B_dLBzoI_Np-7" value="" style="endArrow=classic;html=1;rounded=0;exitX=0.5;exitY=1;exitDx=0;exitDy=0;entryX=0.5;entryY=0;entryDx=0;entryDy=0;" edge="1" parent="3" source="j6gfo25uo2iYtFk8idYJ-46" target="FOikH1ex-B_dLBzoI_Np-8">
          <mxGeometry width="50" height="50" relative="1" as="geometry">
            <mxPoint x="104.5" y="270" as="sourcePoint" />
            <mxPoint x="89.5" y="240" as="targetPoint" />
          </mxGeometry>
        </mxCell>
        <mxCell id="FOikH1ex-B_dLBzoI_Np-8" value="" style="rhombus;whiteSpace=wrap;html=1;" vertex="1" parent="3">
          <mxGeometry x="49.25" y="201.5" width="80.5" height="57" as="geometry" />
        </mxCell>
        <mxCell id="FOikH1ex-B_dLBzoI_Np-17" value="Kiểm tra thông tin sản phẩm cần xóa" style="rounded=1;whiteSpace=wrap;html=1;" vertex="1" parent="3">
          <mxGeometry x="89.5" y="319" width="110.5" height="51" as="geometry" />
        </mxCell>
        <mxCell id="FOikH1ex-B_dLBzoI_Np-18" value="" style="rhombus;whiteSpace=wrap;html=1;" vertex="1" parent="3">
          <mxGeometry x="107" y="400" width="75.5" height="50" as="geometry" />
        </mxCell>
        <mxCell id="FOikH1ex-B_dLBzoI_Np-19" value="" style="endArrow=classic;html=1;rounded=0;entryX=0.5;entryY=0;entryDx=0;entryDy=0;exitX=0.5;exitY=1;exitDx=0;exitDy=0;" edge="1" parent="3" source="FOikH1ex-B_dLBzoI_Np-17" target="FOikH1ex-B_dLBzoI_Np-18">
          <mxGeometry width="50" height="50" relative="1" as="geometry">
            <mxPoint x="24.5" y="450" as="sourcePoint" />
            <mxPoint x="74.5" y="400" as="targetPoint" />
          </mxGeometry>
        </mxCell>
        <mxCell id="FOikH1ex-B_dLBzoI_Np-20" value="Xóa sản phẩm" style="rounded=1;whiteSpace=wrap;html=1;" vertex="1" parent="3">
          <mxGeometry x="102" y="480" width="85.5" height="40" as="geometry" />
        </mxCell>
        <mxCell id="FOikH1ex-B_dLBzoI_Np-21" value="" style="endArrow=classic;html=1;rounded=0;entryX=0.5;entryY=0;entryDx=0;entryDy=0;exitX=0.5;exitY=1;exitDx=0;exitDy=0;" edge="1" parent="3" source="FOikH1ex-B_dLBzoI_Np-18" target="FOikH1ex-B_dLBzoI_Np-20">
          <mxGeometry width="50" height="50" relative="1" as="geometry">
            <mxPoint x="24.5" y="510" as="sourcePoint" />
            <mxPoint x="74.5" y="460" as="targetPoint" />
          </mxGeometry>
        </mxCell>
        <mxCell id="FOikH1ex-B_dLBzoI_Np-22" value="Sản phẩm" style="rounded=0;whiteSpace=wrap;html=1;" vertex="1" parent="3">
          <mxGeometry x="234.5" y="420" width="69.5" height="40" as="geometry" />
        </mxCell>
        <mxCell id="FOikH1ex-B_dLBzoI_Np-24" value="" style="html=1;labelBackgroundColor=#ffffff;startArrow=none;startFill=0;startSize=6;endArrow=classic;endFill=1;endSize=6;jettySize=auto;orthogonalLoop=1;strokeWidth=1;dashed=1;fontSize=14;rounded=0;entryX=0;entryY=0.5;entryDx=0;entryDy=0;exitX=1;exitY=0;exitDx=0;exitDy=0;" edge="1" parent="3" source="FOikH1ex-B_dLBzoI_Np-20" target="FOikH1ex-B_dLBzoI_Np-22">
          <mxGeometry width="60" height="60" relative="1" as="geometry">
            <mxPoint x="275" y="268" as="sourcePoint" />
            <mxPoint x="200" y="318" as="targetPoint" />
          </mxGeometry>
        </mxCell>
        <mxCell id="FOikH1ex-B_dLBzoI_Np-25" value="" style="endArrow=classic;html=1;rounded=0;exitX=0.5;exitY=1;exitDx=0;exitDy=0;entryX=0;entryY=0;entryDx=0;entryDy=0;" edge="1" parent="3" source="FOikH1ex-B_dLBzoI_Np-20" target="FOikH1ex-B_dLBzoI_Np-26">
          <mxGeometry width="50" height="50" relative="1" as="geometry">
            <mxPoint x="114.5" y="600" as="sourcePoint" />
            <mxPoint x="184.5" y="580" as="targetPoint" />
          </mxGeometry>
        </mxCell>
        <mxCell id="FOikH1ex-B_dLBzoI_Np-26" value="Thông báo xóa sản phẩm thành công" style="rounded=1;whiteSpace=wrap;html=1;" vertex="1" parent="3">
          <mxGeometry x="182.5" y="550" width="100.5" height="50" as="geometry" />
        </mxCell>
        <mxCell id="FOikH1ex-B_dLBzoI_Np-27" value="" style="endArrow=classic;html=1;rounded=0;exitX=1;exitY=0.5;exitDx=0;exitDy=0;" edge="1" parent="3" source="FOikH1ex-B_dLBzoI_Np-26">
          <mxGeometry width="50" height="50" relative="1" as="geometry">
            <mxPoint x="274.5" y="590" as="sourcePoint" />
            <mxPoint x="324.5" y="530" as="targetPoint" />
            <Array as="points">
              <mxPoint x="324.5" y="575" />
              <mxPoint x="324.5" y="550" />
            </Array>
          </mxGeometry>
        </mxCell>
        <mxCell id="FOikH1ex-B_dLBzoI_Np-28" value="" style="ellipse;html=1;shape=endState;fillColor=#000000;strokeColor=#ff0000;" vertex="1" parent="3">
          <mxGeometry x="304.5" y="500" width="30" height="30" as="geometry" />
        </mxCell>
        <mxCell id="FOikH1ex-B_dLBzoI_Np-30" value="Đúng" style="text;html=1;align=center;verticalAlign=middle;resizable=0;points=[];autosize=1;strokeColor=none;fillColor=none;" vertex="1" parent="3">
          <mxGeometry x="102" y="438" width="50" height="30" as="geometry" />
        </mxCell>
        <mxCell id="FOikH1ex-B_dLBzoI_Np-31" value="Sai" style="text;html=1;align=center;verticalAlign=middle;resizable=0;points=[];autosize=1;strokeColor=none;fillColor=none;" vertex="1" parent="3">
          <mxGeometry x="74.5" y="400" width="40" height="30" as="geometry" />
        </mxCell>
        <mxCell id="FOikH1ex-B_dLBzoI_Np-34" value="" style="endArrow=classic;html=1;rounded=0;exitX=0;exitY=0.5;exitDx=0;exitDy=0;entryX=1;entryY=0.5;entryDx=0;entryDy=0;" edge="1" parent="3" source="FOikH1ex-B_dLBzoI_Np-26" target="FOikH1ex-B_dLBzoI_Np-35">
          <mxGeometry width="50" height="50" relative="1" as="geometry">
            <mxPoint x="44.5" y="630" as="sourcePoint" />
            <mxPoint x="94.5" y="575" as="targetPoint" />
          </mxGeometry>
        </mxCell>
        <mxCell id="FOikH1ex-B_dLBzoI_Np-35" value="Reset form" style="rounded=1;whiteSpace=wrap;html=1;" vertex="1" parent="3">
          <mxGeometry x="12" y="552.5" width="90" height="45" as="geometry" />
        </mxCell>
        <mxCell id="FOikH1ex-B_dLBzoI_Np-12" value="Sai" style="text;html=1;align=center;verticalAlign=middle;resizable=0;points=[];autosize=1;strokeColor=none;fillColor=none;" vertex="1" parent="1">
          <mxGeometry x="520" y="318" width="40" height="30" as="geometry" />
        </mxCell>
        <mxCell id="FOikH1ex-B_dLBzoI_Np-14" value="Đúng" style="text;html=1;align=center;verticalAlign=middle;resizable=0;points=[];autosize=1;strokeColor=none;fillColor=none;" vertex="1" parent="1">
          <mxGeometry x="535" y="368" width="50" height="30" as="geometry" />
        </mxCell>
        <mxCell id="2" value="Admin" style="swimlane;whiteSpace=wrap" parent="1" vertex="1">
          <mxGeometry x="150" y="120" width="345.5" height="700" as="geometry" />
        </mxCell>
        <mxCell id="j6gfo25uo2iYtFk8idYJ-41" value="" style="ellipse;html=1;shape=startState;fillColor=#000000;strokeColor=#ff0000;" parent="2" vertex="1">
          <mxGeometry x="95.5" y="40" width="30" height="30" as="geometry" />
        </mxCell>
        <mxCell id="j6gfo25uo2iYtFk8idYJ-44" value="" style="endArrow=classic;html=1;rounded=0;exitX=0.5;exitY=1;exitDx=0;exitDy=0;" parent="2" source="j6gfo25uo2iYtFk8idYJ-41" edge="1">
          <mxGeometry width="50" height="50" relative="1" as="geometry">
            <mxPoint x="105.5" y="170" as="sourcePoint" />
            <mxPoint x="110.5" y="130" as="targetPoint" />
          </mxGeometry>
        </mxCell>
        <mxCell id="j6gfo25uo2iYtFk8idYJ-45" value="Chọn chức năng xóa sản phẩm" style="rounded=1;whiteSpace=wrap;html=1;" parent="2" vertex="1">
          <mxGeometry x="63.25" y="130" width="94.5" height="40" as="geometry" />
        </mxCell>
        <mxCell id="FOikH1ex-B_dLBzoI_Np-9" value="Yêu cầu đăng nhập" style="rounded=1;whiteSpace=wrap;html=1;" vertex="1" parent="2">
          <mxGeometry x="63.25" y="210" width="96.75" height="40" as="geometry" />
        </mxCell>
        <mxCell id="FOikH1ex-B_dLBzoI_Np-15" value="Nhập thông tin sản phẩm cần xóa" style="rounded=1;whiteSpace=wrap;html=1;" vertex="1" parent="2">
          <mxGeometry x="61" y="267" width="99" height="52" as="geometry" />
        </mxCell>
        <mxCell id="FOikH1ex-B_dLBzoI_Np-32" value="Thông báo lỗi và yêu cầu nhập lại thông tin sản phẩm cần xóa" style="rounded=1;whiteSpace=wrap;html=1;" vertex="1" parent="2">
          <mxGeometry x="120" y="395" width="120" height="60" as="geometry" />
        </mxCell>
        <mxCell id="FOikH1ex-B_dLBzoI_Np-33" value="" style="endArrow=classic;html=1;rounded=0;exitX=0;exitY=0.5;exitDx=0;exitDy=0;entryX=0.25;entryY=1;entryDx=0;entryDy=0;" edge="1" parent="2" source="FOikH1ex-B_dLBzoI_Np-32" target="FOikH1ex-B_dLBzoI_Np-15">
          <mxGeometry width="50" height="50" relative="1" as="geometry">
            <mxPoint x="40" y="440" as="sourcePoint" />
            <mxPoint x="90" y="390" as="targetPoint" />
            <Array as="points">
              <mxPoint x="86" y="425" />
            </Array>
          </mxGeometry>
        </mxCell>
        <mxCell id="FOikH1ex-B_dLBzoI_Np-4" value="" style="endArrow=classic;html=1;rounded=0;exitX=1;exitY=0.5;exitDx=0;exitDy=0;entryX=0;entryY=0.5;entryDx=0;entryDy=0;" edge="1" parent="1" source="j6gfo25uo2iYtFk8idYJ-45" target="j6gfo25uo2iYtFk8idYJ-46">
          <mxGeometry width="50" height="50" relative="1" as="geometry">
            <mxPoint x="340" y="300" as="sourcePoint" />
            <mxPoint x="390" y="250" as="targetPoint" />
          </mxGeometry>
        </mxCell>
        <mxCell id="FOikH1ex-B_dLBzoI_Np-10" value="" style="endArrow=classic;html=1;rounded=0;exitX=1;exitY=0.5;exitDx=0;exitDy=0;entryX=0;entryY=0.5;entryDx=0;entryDy=0;" edge="1" parent="1" source="FOikH1ex-B_dLBzoI_Np-9" target="j6gfo25uo2iYtFk8idYJ-46">
          <mxGeometry width="50" height="50" relative="1" as="geometry">
            <mxPoint x="390" y="350" as="sourcePoint" />
            <mxPoint x="440" y="300" as="targetPoint" />
          </mxGeometry>
        </mxCell>
        <mxCell id="FOikH1ex-B_dLBzoI_Np-11" value="" style="endArrow=classic;html=1;rounded=0;entryX=1;entryY=0.5;entryDx=0;entryDy=0;exitX=0;exitY=0.5;exitDx=0;exitDy=0;" edge="1" parent="1" source="FOikH1ex-B_dLBzoI_Np-8" target="FOikH1ex-B_dLBzoI_Np-9">
          <mxGeometry width="50" height="50" relative="1" as="geometry">
            <mxPoint x="210" y="460" as="sourcePoint" />
            <mxPoint x="260" y="410" as="targetPoint" />
          </mxGeometry>
        </mxCell>
        <mxCell id="FOikH1ex-B_dLBzoI_Np-13" value="" style="endArrow=classic;html=1;rounded=0;exitX=0.5;exitY=1;exitDx=0;exitDy=0;entryX=1;entryY=0.5;entryDx=0;entryDy=0;" edge="1" parent="1" source="FOikH1ex-B_dLBzoI_Np-8" target="FOikH1ex-B_dLBzoI_Np-15">
          <mxGeometry width="50" height="50" relative="1" as="geometry">
            <mxPoint x="570" y="480" as="sourcePoint" />
            <mxPoint x="370" y="430" as="targetPoint" />
            <Array as="points">
              <mxPoint x="585" y="413" />
            </Array>
          </mxGeometry>
        </mxCell>
        <mxCell id="FOikH1ex-B_dLBzoI_Np-16" value="" style="endArrow=classic;html=1;rounded=0;exitX=0.5;exitY=1;exitDx=0;exitDy=0;entryX=0;entryY=0.5;entryDx=0;entryDy=0;" edge="1" parent="1" source="FOikH1ex-B_dLBzoI_Np-15" target="FOikH1ex-B_dLBzoI_Np-17">
          <mxGeometry width="50" height="50" relative="1" as="geometry">
            <mxPoint x="210" y="540" as="sourcePoint" />
            <mxPoint x="310" y="490" as="targetPoint" />
            <Array as="points">
              <mxPoint x="271" y="464" />
            </Array>
          </mxGeometry>
        </mxCell>
        <mxCell id="FOikH1ex-B_dLBzoI_Np-29" value="" style="endArrow=classic;html=1;rounded=0;exitX=0;exitY=0.5;exitDx=0;exitDy=0;entryX=1;entryY=0.5;entryDx=0;entryDy=0;" edge="1" parent="1" source="FOikH1ex-B_dLBzoI_Np-18" target="FOikH1ex-B_dLBzoI_Np-32">
          <mxGeometry width="50" height="50" relative="1" as="geometry">
            <mxPoint x="360" y="600" as="sourcePoint" />
            <mxPoint x="390" y="545" as="targetPoint" />
          </mxGeometry>
        </mxCell>
        <mxCell id="FOikH1ex-B_dLBzoI_Np-36" value="" style="endArrow=classic;html=1;rounded=0;exitX=0;exitY=0.5;exitDx=0;exitDy=0;entryX=0;entryY=0.5;entryDx=0;entryDy=0;" edge="1" parent="1" source="FOikH1ex-B_dLBzoI_Np-35" target="FOikH1ex-B_dLBzoI_Np-15">
          <mxGeometry width="50" height="50" relative="1" as="geometry">
            <mxPoint x="380" y="730" as="sourcePoint" />
            <mxPoint x="200" y="410" as="targetPoint" />
            <Array as="points">
              <mxPoint x="210" y="695" />
            </Array>
          </mxGeometry>
        </mxCell>
      </root>
    </mxGraphModel>
  </diagram>
</mxfile>
